<svg width="768" height="474" viewBox="0 0 768 474" fill="none" xmlns="http://www.w3.org/2000/svg">
<path d="M96.5088 176.005C96.5088 182.112 96.9995 187.019 97.981 190.727C99.0715 194.435 100.544 197.379 102.397 199.56C104.36 201.632 106.65 203.159 109.268 204.14C111.994 205.013 114.993 205.667 118.264 206.103L124.644 207.248L123.335 238.981C118.428 238.545 113.084 238.109 107.305 237.673C102.288 237.346 96.4543 237.073 89.8022 236.855C83.2593 236.528 76.1165 236.364 68.374 236.364C60.8496 236.364 52.4528 236.473 43.1836 236.691C34.0234 236.91 23.5547 237.673 11.7773 238.981L13.0859 207.248C15.9212 206.921 18.8656 206.594 21.9189 206.267C24.5361 206.049 27.4259 205.83 30.5884 205.612C33.8599 205.285 37.0768 205.122 40.2393 205.122C40.6755 198.797 41.0571 191.818 41.3843 184.184C41.7114 176.442 42.0386 168.481 42.3657 160.302C42.8019 152.014 43.1291 143.672 43.3472 135.275C43.6743 126.879 43.9469 118.863 44.165 111.23C44.3831 103.487 44.5467 96.2902 44.6558 89.6382C44.7648 82.9862 44.8193 77.2611 44.8193 72.4629C44.8193 66.4652 44.3286 61.6125 43.3472 57.9048C42.3657 54.1971 40.9481 51.3073 39.0942 49.2354C37.3494 47.0544 35.1685 45.5277 32.5513 44.6553C29.9341 43.6738 26.9897 42.9105 23.7183 42.3652L17.3389 41.3838L18.811 9.48682C25.5721 10.1411 32.3332 10.6864 39.0942 11.1226C45.8553 11.5588 52.7254 11.9404 59.7046 12.2676C66.7928 12.5947 74.0991 12.8674 81.6235 13.0854C89.257 13.1945 97.3267 13.249 105.833 13.249C121.754 13.249 138.275 12.9219 155.396 12.2676C172.625 11.6133 190.728 10.6864 209.702 9.48682L204.631 86.5303H166.846L165.864 77.5337C165.319 73.3898 164.447 69.6821 163.247 66.4106C162.157 63.0301 160.575 60.1403 158.503 57.7412C156.431 55.3421 153.76 53.4338 150.488 52.0161C147.217 50.5985 143.182 49.617 138.384 49.0718L101.58 45.3096L98.4717 113.029L164.229 110.412L162.429 150.979L97.4902 146.562L96.5088 176.005ZM292.471 176.333C292.471 180.585 292.907 184.838 293.779 189.091C294.652 193.235 296.015 196.997 297.869 200.378C299.722 203.649 302.067 206.321 304.902 208.393C307.738 210.465 311.173 211.501 315.208 211.501L314.226 238H310.464C303.267 238 296.451 238.109 290.017 238.327C283.583 238.545 277.367 238.872 271.37 239.309C265.481 239.854 259.756 240.563 254.194 241.435C248.633 242.307 243.071 243.398 237.51 244.707C240.236 224.314 242.308 204.74 243.726 185.983C245.252 167.118 246.343 149.397 246.997 132.822C247.76 116.137 248.197 100.761 248.306 86.6938C248.524 72.6265 248.633 60.1948 248.633 49.3989C248.633 39.1483 246.779 31.5148 243.071 26.4985C239.473 21.4823 233.584 18.5924 225.405 17.8291L226.387 -8.50635C232.384 -8.72445 238.927 -9.16064 246.016 -9.81494C253.104 -10.5783 260.138 -11.4507 267.117 -12.4321C274.205 -13.5226 280.911 -14.7222 287.236 -16.0308C293.561 -17.3394 298.959 -18.6479 303.43 -19.9565C300.486 3.70719 298.25 25.4626 296.724 45.3096C295.306 65.0475 294.27 83.0407 293.616 99.2891C292.961 115.428 292.58 129.932 292.471 142.8C292.471 155.559 292.471 166.736 292.471 176.333ZM346.45 35.9858C346.45 30.9696 347.268 26.6621 348.904 23.0635C350.54 19.3558 352.666 16.3569 355.283 14.0669C357.9 11.6678 360.899 9.92301 364.28 8.83252C367.769 7.74202 371.313 7.19678 374.912 7.19678C378.402 7.19678 381.837 7.74202 385.217 8.83252C388.707 9.92301 391.76 11.6678 394.377 14.0669C397.104 16.3569 399.285 19.3558 400.92 23.0635C402.556 26.6621 403.374 30.9696 403.374 35.9858C403.374 40.5659 402.611 44.7098 401.084 48.4175C399.666 52.1252 397.649 55.3421 395.032 58.0684C392.524 60.6855 389.525 62.7575 386.035 64.2842C382.655 65.7018 378.947 66.4106 374.912 66.4106C370.877 66.4106 367.115 65.7018 363.625 64.2842C360.245 62.7575 357.246 60.6855 354.629 58.0684C352.121 55.3421 350.103 52.1252 348.577 48.4175C347.159 44.7098 346.45 40.5659 346.45 35.9858ZM415.151 238H411.389C396.995 238 383.854 238.436 371.968 239.309C360.19 240.181 348.795 241.98 337.781 244.707C338.871 237.073 339.962 229.603 341.052 222.297C342.252 214.882 343.288 207.575 344.16 200.378C345.033 193.181 345.741 185.983 346.287 178.786C346.832 171.589 347.104 164.283 347.104 156.867C347.104 146.071 345.251 138.165 341.543 133.149C337.944 128.024 332.11 125.134 324.041 124.479L325.022 97.9805C339.853 97.4352 353.702 96.1266 366.57 94.0547C379.547 91.8737 391.597 89.3656 402.72 86.5303C400.321 102.124 398.14 117.991 396.177 134.13C394.323 150.161 393.396 165.591 393.396 180.422C393.396 191.327 395.468 199.233 399.612 204.14C403.865 209.047 409.372 211.501 416.133 211.501L415.151 238ZM567.112 218.535C558.17 226.059 547.81 231.893 536.033 236.037C524.364 240.072 511.715 242.089 498.083 242.089C487.069 242.089 477.146 240.454 468.313 237.182C459.589 233.911 452.119 229.222 445.903 223.115C439.797 217.008 435.053 209.593 431.672 200.869C428.401 192.145 426.765 182.385 426.765 171.589C426.765 159.921 428.728 148.907 432.654 138.547C436.689 128.187 442.359 119.191 449.666 111.557C457.081 103.815 466.023 97.7078 476.492 93.2368C486.96 88.7658 498.629 86.5303 511.497 86.5303C519.566 86.5303 527.036 87.5662 533.906 89.6382C540.885 91.6011 546.938 94.3273 552.063 97.8169C557.188 101.306 561.169 105.396 564.004 110.085C566.948 114.774 568.42 119.79 568.42 125.134C568.42 135.712 564.44 143.672 556.479 149.016C548.519 154.25 536.742 156.867 521.147 156.867C520.929 152.396 520.493 148.089 519.839 143.945C519.294 139.801 518.312 136.148 516.895 132.985C515.586 129.714 513.787 127.151 511.497 125.297C509.207 123.334 506.317 122.353 502.827 122.353C498.901 122.353 495.357 123.334 492.195 125.297C489.032 127.26 486.361 130.096 484.18 133.803C481.999 137.511 480.308 141.982 479.109 147.216C477.909 152.342 477.31 158.121 477.31 164.555C477.31 171.534 478.291 177.587 480.254 182.712C482.217 187.728 484.998 191.872 488.596 195.144C492.195 198.415 496.502 200.869 501.519 202.504C506.644 204.031 512.314 204.794 518.53 204.794C524.092 204.794 530.362 204.195 537.341 202.995C544.32 201.796 550.918 199.942 557.134 197.434L567.112 218.535ZM642.847 151.306C647.754 142.036 652.607 133.422 657.405 125.461C662.203 117.5 667.219 110.685 672.454 105.014C677.688 99.2345 683.25 94.709 689.138 91.4375C695.136 88.166 701.788 86.5303 709.094 86.5303C713.674 86.5303 717.709 87.3481 721.199 88.9839C724.797 90.5106 727.796 92.5825 730.195 95.1997C732.703 97.8169 734.612 100.87 735.92 104.36C737.229 107.74 737.883 111.285 737.883 114.992C737.883 119.463 737.011 123.88 735.266 128.242C733.63 132.604 730.959 136.693 727.251 140.51C725.07 139.201 722.671 138.22 720.054 137.565C717.437 136.802 714.438 136.42 711.057 136.42C704.732 136.42 698.462 137.62 692.246 140.019C686.03 142.418 680.687 146.507 676.216 152.287L695.681 177.314C699.934 182.875 703.914 187.837 707.622 192.199C711.439 196.452 715.146 200.16 718.745 203.322C722.344 206.485 725.888 209.047 729.377 211.01C732.867 212.973 736.52 214.391 740.337 215.263L738.865 238C735.157 239.309 731.395 240.236 727.578 240.781C723.87 241.435 720.163 241.762 716.455 241.762C711.548 241.762 706.532 241.162 701.406 239.963C696.39 238.763 691.319 236.8 686.194 234.074C681.178 231.239 676.161 227.586 671.145 223.115C666.129 218.535 661.276 212.864 656.587 206.103L643.174 187.456C642.847 194.217 642.629 200.923 642.52 207.575C642.52 214.118 642.52 219.571 642.52 223.933V238C631.069 238 621.2 238.654 612.913 239.963C604.625 241.381 597.046 242.962 590.176 244.707C591.812 227.259 593.229 209.484 594.429 191.381C595.737 173.17 596.828 155.504 597.7 138.383C598.682 121.153 599.39 104.905 599.827 89.6382C600.372 74.3713 600.645 60.9582 600.645 49.3989C600.645 39.1483 598.791 31.5148 595.083 26.4985C591.484 21.4823 585.596 18.5924 577.417 17.8291L578.398 -8.50635C584.396 -8.72445 590.939 -9.16064 598.027 -9.81494C605.116 -10.5783 612.149 -11.4507 619.128 -12.4321C626.217 -13.5226 632.923 -14.7222 639.248 -16.0308C645.573 -17.3394 650.971 -18.6479 655.442 -19.9565L642.847 151.306Z" fill="white"/>
<path d="M145.125 295.047L185.203 433H186.891L226.688 309.109C228.094 304.516 229.125 300.672 229.781 297.578C230.531 294.484 230.906 291.906 230.906 289.844C230.906 287.406 230.25 285.672 228.938 284.641C227.625 283.609 225.516 282.859 222.609 282.391L216.562 281.547V273.391C218.062 273.766 219.984 274.141 222.328 274.516C224.297 274.797 226.781 275.031 229.781 275.219C232.875 275.406 236.625 275.5 241.031 275.5C245.438 275.5 250.359 275.359 255.797 275.078C261.234 274.703 267.469 274.141 274.5 273.391V281.547C272.062 281.734 269.906 281.922 268.031 282.109C266.156 282.297 264.422 282.484 262.828 282.672C261.234 282.766 259.688 282.859 258.188 282.953C256.688 283.047 255.094 283.141 253.406 283.234L185.484 470.969L174.234 473.359L135.141 337.938L87.8906 470.969L76.6406 473.359L30.5156 308.828C28.9219 303.203 27.0469 298.75 24.8906 295.469C22.8281 292.188 20.5781 289.656 18.1406 287.875C15.7969 286 13.3125 284.734 10.6875 284.078C8.0625 283.328 5.4375 282.766 2.8125 282.391L-0.28125 281.547V273.391C2.15625 273.766 4.96875 274.141 8.15625 274.516C10.875 274.797 14.2031 275.031 18.1406 275.219C22.0781 275.406 26.5781 275.5 31.6406 275.5C36.7031 275.5 42.2344 275.359 48.2344 275.078C54.2344 274.703 60.7031 274.141 67.6406 273.391V281.547C65.2031 281.734 63.0469 281.922 61.1719 282.109C59.3906 282.297 57.7031 282.484 56.1094 282.672C54.5156 282.766 52.9688 282.859 51.4688 282.953C49.9688 283.047 48.375 283.141 46.6875 283.234L87.3281 433H89.0156L136.828 297.578L145.125 295.047ZM275.766 447.062C275.766 441.531 277.172 436.75 279.984 432.719C282.891 428.688 286.594 425.219 291.094 422.312C295.688 419.406 300.797 417.016 306.422 415.141C312.047 413.266 317.672 411.766 323.297 410.641C328.922 409.516 334.219 408.719 339.188 408.25C344.25 407.688 348.375 407.312 351.562 407.125C352.031 402.906 352.312 398.828 352.406 394.891C352.594 390.953 352.688 387.25 352.688 383.781C352.688 379.375 352.359 375.156 351.703 371.125C351.047 367.094 349.781 363.531 347.906 360.438C346.031 357.344 343.406 354.906 340.031 353.125C336.75 351.25 332.438 350.312 327.094 350.312C323.344 350.312 319.875 351.016 316.688 352.422C313.5 353.828 310.734 355.75 308.391 358.188C306.141 360.531 304.359 363.344 303.047 366.625C301.828 369.812 301.219 373.234 301.219 376.891C301.219 378.297 301.312 379.75 301.5 381.25C301.781 382.656 302.156 384.156 302.625 385.75C301.594 386.969 300.141 387.906 298.266 388.562C296.484 389.219 294.656 389.547 292.781 389.547C291.375 389.547 290.016 389.359 288.703 388.984C287.391 388.516 286.219 387.812 285.188 386.875C284.156 385.938 283.312 384.719 282.656 383.219C282.094 381.719 281.812 379.891 281.812 377.734C281.812 372.484 283.594 367.703 287.156 363.391C290.812 359.078 295.359 355.422 300.797 352.422C306.328 349.328 312.328 346.984 318.797 345.391C325.266 343.703 331.406 342.859 337.219 342.859C348.281 342.859 356.906 345.391 363.094 350.453C369.375 355.516 372.516 363.906 372.516 375.625C372.516 380.688 372.281 386.266 371.812 392.359C371.438 398.359 370.969 404.312 370.406 410.219C369.844 416.125 369.328 421.75 368.859 427.094C368.484 432.344 368.297 436.703 368.297 440.172C368.297 446.078 369 450.672 370.406 453.953C371.906 457.234 374.156 458.875 377.156 458.875C378.938 458.875 380.719 458.359 382.5 457.328C384.281 456.203 385.969 454.938 387.562 453.531C389.156 452.031 390.562 450.531 391.781 449.031C393 447.438 393.984 446.219 394.734 445.375L399.938 449.734C396.656 454.328 393.609 458.078 390.797 460.984C387.984 463.797 385.312 466.047 382.781 467.734C380.25 469.328 377.812 470.406 375.469 470.969C373.125 471.531 370.828 471.812 368.578 471.812C365.109 471.812 362.109 471.109 359.578 469.703C357.047 468.391 354.938 466.609 353.25 464.359C351.656 462.109 350.391 459.531 349.453 456.625C348.609 453.719 348.141 450.719 348.047 447.625C346.172 450.719 343.969 453.719 341.438 456.625C338.906 459.531 335.953 462.109 332.578 464.359C329.203 466.609 325.359 468.391 321.047 469.703C316.734 471.109 311.906 471.812 306.562 471.812C300.188 471.812 294.984 470.969 290.953 469.281C286.922 467.688 283.781 465.672 281.531 463.234C279.281 460.703 277.734 457.984 276.891 455.078C276.141 452.172 275.766 449.5 275.766 447.062ZM313.875 461.547C319.875 461.547 324.984 460.234 329.203 457.609C333.516 454.891 337.078 451.328 339.891 446.922C342.797 442.516 345.094 437.5 346.781 431.875C348.562 426.156 349.875 420.297 350.719 414.297C347.531 414.578 343.969 414.906 340.031 415.281C336.094 415.656 332.109 416.266 328.078 417.109C324.141 417.859 320.25 418.938 316.406 420.344C312.656 421.656 309.281 423.391 306.281 425.547C303.375 427.703 301.031 430.328 299.25 433.422C297.469 436.422 296.578 440.031 296.578 444.25C296.578 447.812 297.141 450.719 298.266 452.969C299.484 455.125 300.984 456.859 302.766 458.172C304.547 459.484 306.422 460.375 308.391 460.844C310.359 461.312 312.188 461.547 313.875 461.547ZM426.375 345.672C426.562 339.484 426.75 333.109 426.938 326.547C427.219 319.891 427.359 312.953 427.359 305.734L448.312 301.094C447.469 307.188 446.719 314.078 446.062 321.766C445.5 329.359 444.938 337.328 444.375 345.672C453.656 345.672 461.531 345.391 468 344.828C474.562 344.266 480 343.609 484.312 342.859L477.984 356.359H468.844C464.344 356.359 460.078 356.359 456.047 356.359C452.016 356.359 447.797 356.266 443.391 356.078C442.922 362.359 442.5 368.594 442.125 374.781C441.75 380.875 441.422 386.781 441.141 392.5C440.859 398.125 440.625 403.422 440.438 408.391C440.344 413.359 440.297 417.719 440.297 421.469C440.297 427.562 440.578 432.719 441.141 436.938C441.797 441.156 442.828 444.578 444.234 447.203C445.641 449.828 447.516 451.75 449.859 452.969C452.203 454.094 455.156 454.656 458.719 454.656C462.75 454.656 467.062 453.484 471.656 451.141C476.25 448.703 480.281 445.234 483.75 440.734L488.391 445.938C485.297 449.594 482.109 453.016 478.828 456.203C475.547 459.297 472.125 462.016 468.562 464.359C465.094 466.609 461.531 468.391 457.875 469.703C454.219 471.109 450.469 471.812 446.625 471.812C441.562 471.812 437.391 470.875 434.109 469C430.922 467.219 428.391 464.734 426.516 461.547C424.641 458.359 423.328 454.609 422.578 450.297C421.922 445.984 421.594 441.297 421.594 436.234C421.594 426.484 422.109 414.953 423.141 401.641C424.172 388.234 425.156 372.766 426.094 355.234C422.156 354.953 418.219 354.625 414.281 354.25C410.344 353.781 406.078 353.172 401.484 352.422L402.047 345.672H426.375ZM610.312 446.5C600.094 455.312 590.156 461.734 580.5 465.766C570.844 469.797 561.469 471.812 552.375 471.812C544.125 471.812 536.812 470.359 530.438 467.453C524.156 464.453 518.859 460.422 514.547 455.359C510.234 450.297 506.953 444.344 504.703 437.5C502.547 430.656 501.469 423.297 501.469 415.422C501.469 405.766 503.109 396.531 506.391 387.719C509.766 378.906 514.547 371.219 520.734 364.656C526.922 358 534.422 352.703 543.234 348.766C552.047 344.828 561.938 342.859 572.906 342.859C578.625 342.859 583.828 343.469 588.516 344.688C593.203 345.906 597.234 347.5 600.609 349.469C603.984 351.438 606.562 353.734 608.344 356.359C610.219 358.984 611.156 361.703 611.156 364.516C611.156 366.578 610.688 368.453 609.75 370.141C608.906 371.828 607.734 373.281 606.234 374.5C604.734 375.625 602.953 376.562 600.891 377.312C598.922 378.062 596.859 378.484 594.703 378.578C594.422 375.672 593.625 372.625 592.312 369.438C591.094 366.25 589.172 363.344 586.547 360.719C584.016 358.094 580.734 355.938 576.703 354.25C572.766 352.562 567.938 351.719 562.219 351.719C557.25 351.719 552.281 352.797 547.312 354.953C542.438 357.016 538.031 360.25 534.094 364.656C530.156 368.969 526.922 374.453 524.391 381.109C521.953 387.766 520.734 395.641 520.734 404.734C520.734 413.078 521.812 420.391 523.969 426.672C526.125 432.953 529.172 438.25 533.109 442.562C537.141 446.875 541.922 450.109 547.453 452.266C552.984 454.422 559.125 455.5 565.875 455.5C568.406 455.5 571.172 455.359 574.172 455.078C577.172 454.703 580.359 454 583.734 452.969C587.109 451.938 590.672 450.484 594.422 448.609C598.172 446.734 602.109 444.203 606.234 441.016L610.312 446.5ZM646.594 291.25C646.594 285.719 646.312 281.219 645.75 277.75C645.281 274.281 644.297 271.562 642.797 269.594C641.297 267.625 639.188 266.312 636.469 265.656C633.844 264.906 630.422 264.531 626.203 264.531H621V257.922C625.125 257.734 628.969 257.5 632.531 257.219C636.094 256.844 639.703 256.375 643.359 255.812C647.109 255.25 651.047 254.547 655.172 253.703C659.297 252.859 663.938 251.781 669.094 250.469C668.719 254.031 668.297 258.484 667.828 263.828C667.359 269.172 666.844 275.078 666.281 281.547C665.812 288.016 665.297 294.906 664.734 302.219C664.172 309.531 663.656 316.938 663.188 324.438C662.719 331.844 662.25 339.25 661.781 346.656C661.406 353.969 661.078 360.859 660.797 367.328C665.953 363.109 670.781 359.5 675.281 356.5C679.875 353.406 684.281 350.875 688.5 348.906C692.812 346.844 697.078 345.344 701.297 344.406C705.516 343.375 709.875 342.859 714.375 342.859C717.281 342.859 720.562 343.328 724.219 344.266C727.969 345.109 731.484 346.891 734.766 349.609C738.047 352.328 740.812 356.172 743.062 361.141C745.406 366.016 746.578 372.484 746.578 380.547C746.578 385.797 746.344 391.281 745.875 397C745.5 402.719 745.031 408.391 744.469 414.016C744 419.547 743.531 424.938 743.062 430.188C742.688 435.344 742.5 440.031 742.5 444.25C742.5 447.906 742.781 450.906 743.344 453.25C744 455.5 744.984 457.328 746.297 458.734C747.703 460.047 749.484 460.938 751.641 461.406C753.797 461.875 756.422 462.109 759.516 462.109H767.25V469C762.375 469.188 757.828 469.328 753.609 469.422C749.391 469.609 745.359 469.844 741.516 470.125C737.672 470.406 733.922 470.781 730.266 471.25C726.703 471.812 723.094 472.609 719.438 473.641C720.281 468.203 721.172 462.062 722.109 455.219C723.047 448.375 723.891 441.484 724.641 434.547C725.484 427.516 726.141 420.672 726.609 414.016C727.078 407.359 727.312 401.5 727.312 396.438C727.312 391.562 727.078 386.781 726.609 382.094C726.234 377.406 725.156 373.234 723.375 369.578C721.688 365.828 719.062 362.828 715.5 360.578C711.938 358.328 707.016 357.203 700.734 357.203C697.172 357.203 693.469 357.859 689.625 359.172C685.875 360.484 682.219 362.125 678.656 364.094C675.094 366.062 671.719 368.266 668.531 370.703C665.438 373.141 662.766 375.484 660.516 377.734C660.234 382.234 659.953 386.969 659.672 391.938C659.484 396.812 659.344 401.688 659.25 406.562C659.156 411.344 659.062 416.031 658.969 420.625C658.969 425.125 658.969 429.344 658.969 433.281C658.969 439.375 659.109 444.297 659.391 448.047C659.766 451.797 660.516 454.75 661.641 456.906C662.859 459.062 664.641 460.516 666.984 461.266C669.328 462.016 672.516 462.391 676.547 462.391H683.438V469C678.375 469 673.688 469.047 669.375 469.141C665.062 469.328 660.938 469.609 657 469.984C653.156 470.359 649.453 470.828 645.891 471.391C642.422 472.047 639 472.797 635.625 473.641C636.938 460.609 638.109 447.719 639.141 434.969C640.266 422.125 641.25 409.75 642.094 397.844C642.938 385.844 643.641 374.453 644.203 363.672C644.766 352.797 645.234 342.766 645.609 333.578C645.984 324.391 646.219 316.234 646.312 309.109C646.5 301.891 646.594 295.938 646.594 291.25Z" fill="#87E9FF"/>
</svg>
